<?xml version="1.0" encoding="UTF-8"?>
<!-- Generated by Pixelmator Pro 3.7 -->
<svg width="5024" height="1024" viewBox="0 0 5024 1024" xmlns="http://www.w3.org/2000/svg">
    <path id="typography" fill="#ffffff" fill-rule="evenodd" stroke="none" d="M 4946.388184 1022.1875 C 4923.317871 1022.1875 4904.689453 1015.093872 4890.501953 1000.906189 C 4876.313965 986.718567 4869.220703 968.093079 4869.220703 945.028931 C 4869.220703 921.810669 4876.313965 903.069519 4890.501953 888.804871 C 4904.689453 874.540222 4923.317871 867.407959 4946.388184 867.407959 C 4969.452148 867.407959 4988.15332 874.540222 5002.492188 888.804871 C 5016.830566 903.069519 5024 921.810669 5024 945.028931 C 5024 968.093079 5016.830566 986.718567 5002.492188 1000.906189 C 4988.15332 1015.093872 4969.452148 1022.1875 4946.388184 1022.1875 Z M 4773.004883 990.577698 C 4729.30127 1008.182556 4687.00293 1016.984802 4646.108398 1016.984802 C 4603.542969 1016.984802 4566.062012 1007.955811 4533.665039 989.897522 C 4501.268066 971.839233 4475.984375 946.631226 4457.813477 914.272705 C 4439.642578 881.914124 4430.557129 844.414001 4430.557129 801.77124 L 4430.557129 582.352051 L 4330.974609 582.352051 L 4330.974609 436.561646 L 4439.208496 436.561646 L 4439.208496 294.301086 L 4593.87207 294.301086 L 4593.87207 436.561646 L 4751.719238 436.561646 L 4751.719238 582.352051 L 4593.87207 582.352051 L 4593.87207 772.074341 C 4593.87207 803.253235 4602.444824 827.511414 4619.590332 844.849487 C 4636.73584 862.187622 4657.904297 870.856567 4683.096191 870.856567 C 4706.237793 870.856567 4728.921875 863.648682 4751.150391 849.23291 Z M 3832.494141 956.781921 L 3868.228271 817.935608 C 3879.840332 830.377502 3895.225342 841.909363 3914.383057 852.531616 C 3933.540771 863.153809 3954.158203 871.594482 3976.235352 877.854004 C 3998.312744 884.113464 4019.329834 887.243164 4039.287842 887.243164 C 4062.5 887.243164 4080.821777 882.766418 4094.253662 873.812866 C 4107.685547 864.859375 4114.401367 852.872498 4114.401367 837.852051 C 4114.401367 825.333069 4109.88623 814.805847 4100.855469 806.270264 C 4091.824707 797.734619 4079.855957 790.128113 4064.947998 783.450745 C 4050.040283 776.773376 4033.520508 770.133118 4015.387939 763.529785 C 3990.652344 754.354004 3965.253174 743.448914 3939.189697 730.814331 C 3913.126221 718.179688 3891.218262 701.108704 3873.465332 679.600525 C 3855.712646 658.092346 3846.835938 629.508667 3846.835938 593.848511 C 3846.835938 559.474609 3855.770264 529.674316 3873.638672 504.446594 C 3891.507324 479.218872 3916.696045 459.701233 3949.205811 445.893066 C 3981.715332 432.0849 4019.63208 425.180786 4062.956299 425.180786 C 4132.984375 425.180786 4202.976074 442.743958 4272.933105 477.870544 L 4226.609375 607.496643 C 4214.469727 597.941406 4199.295898 589.066528 4181.085938 580.871704 C 4162.876465 572.67688 4144.231934 566.075134 4125.150879 561.066345 C 4106.070313 556.057495 4089.02002 553.553223 4073.999268 553.553223 C 4055.404785 553.553223 4040.815918 557.404541 4030.231934 565.107422 C 4019.648438 572.810303 4014.356689 583.184814 4014.356689 596.231384 C 4014.356689 606.094849 4017.979736 614.914917 4025.226318 622.691833 C 4032.472656 630.46875 4043.247314 637.866211 4057.550537 644.884521 C 4071.85376 651.90271 4089.473145 659.549194 4110.40918 667.823975 C 4136.134766 677.308167 4162.161133 688.555481 4188.487793 701.566406 C 4214.81543 714.577393 4236.988281 731.950806 4255.008301 753.687134 C 4273.027832 775.423462 4282.037598 804.310974 4282.037598 840.350525 C 4282.037598 875.785461 4272.42041 906.760925 4253.185547 933.277832 C 4233.950684 959.794739 4206.977539 980.374878 4172.266113 995.018921 C 4137.554199 1009.662903 4096.868164 1016.984802 4050.206299 1016.984802 C 3972.513916 1016.984802 3899.944092 996.917358 3832.494141 956.781921 Z M 3733.479004 1005.604004 L 3601.007813 1005.604004 L 3595.548584 914.44165 C 3575.365234 947.825623 3548.696045 973.261841 3515.540283 990.751099 C 3482.384521 1008.240356 3443.463379 1016.984802 3398.775391 1016.984802 C 3326.23999 1016.984802 3269.259277 994.641235 3227.831543 949.95343 C 3186.403809 905.265564 3165.69043 843.732544 3165.69043 765.352539 L 3165.69043 436.561646 L 3329.005371 436.561646 L 3329.005371 728.142456 C 3329.005371 772.450928 3339.494141 807.199219 3360.47168 832.388367 C 3381.449463 857.577576 3410.185791 870.171875 3446.681641 870.171875 C 3484.547119 870.171875 3514.593262 856.989258 3536.821533 830.623474 C 3559.049805 804.25769 3570.163818 768.580322 3570.163818 723.590149 L 3570.163818 436.561646 L 3733.479004 436.561646 Z M 2129.806885 1005.604004 L 1966.491699 1005.604004 L 1966.491699 436.561646 L 2108.52124 436.561646 L 2114.21167 535.237183 C 2133.482178 500.483887 2159.392578 473.453186 2191.943604 454.144165 C 2224.494873 434.835144 2261.824463 425.180786 2303.933838 425.180786 C 2315.996338 425.180786 2328.248535 426.034363 2340.69043 427.741516 C 2353.132324 429.448608 2365.689697 432.009338 2378.362793 435.423584 L 2358.108398 582.45874 C 2333.147461 575.025635 2309.39917 571.309082 2286.862549 571.309082 C 2255.375244 571.309082 2227.814209 578.422058 2204.177979 592.648193 C 2180.541748 606.874329 2162.237793 626.620239 2149.265381 651.886353 C 2136.292969 677.152588 2129.806885 706.705444 2129.806885 740.545837 Z M 1839.028442 1005.604004 L 1696.652344 1005.604004 L 1688.001099 938.00354 C 1667.136108 963.11853 1641.378296 982.560608 1610.726929 996.330383 C 1580.075562 1010.100098 1546.312744 1016.984802 1509.437378 1016.984802 C 1469.604248 1016.984802 1434.134277 1009.264343 1403.026489 993.822998 C 1371.918579 978.381714 1347.450073 957.137756 1329.619995 930.090271 C 1311.789917 903.042847 1302.875 872.258545 1302.875 837.736511 C 1302.875 801.317627 1312.548584 769.300415 1331.896118 741.68396 C 1351.243652 714.067444 1377.856445 692.387817 1411.735474 676.644165 C 1445.614502 660.900513 1484.251099 653.028931 1527.646729 653.028931 C 1553.141113 653.028931 1578.635132 655.854736 1604.129517 661.506714 C 1629.624023 667.158752 1653.484985 675.144409 1675.713257 685.464355 L 1675.713257 670.438049 C 1675.713257 647.824341 1669.320557 628.248901 1656.53479 611.71106 C 1643.749023 595.17334 1626.298584 582.31366 1604.182861 573.131836 C 1582.067139 563.949951 1557.237061 559.359192 1529.691772 559.359192 C 1503.592651 559.359192 1454.402832 568.579468 1454.402832 568.579468 L 1453.328857 440.202637 C 1453.328857 440.202637 1530.450195 425.180786 1567.248535 425.180786 C 1622.712646 425.180786 1670.759155 436.048828 1711.389648 457.785156 C 1752.02002 479.521484 1783.450439 510.287903 1805.681641 550.085571 C 1827.912964 589.883301 1839.028442 636.867249 1839.028442 691.039185 Z M 1545.055908 891.004211 C 1566.987793 891.004211 1587.759155 886.299255 1607.370483 876.889282 C 1626.981812 867.479248 1643.009521 854.656677 1655.454468 838.421143 C 1667.899414 822.185547 1674.424072 804.127563 1675.028687 784.246521 L 1675.028687 780.032043 C 1658.490845 768.72821 1640.016357 759.985229 1619.604858 753.802734 C 1599.193359 747.6203 1578.593872 744.529175 1557.805908 744.529175 C 1526.621094 744.529175 1501.221924 751.299866 1481.607666 764.841309 C 1461.993408 778.38269 1452.186401 796.119263 1452.186401 818.051147 C 1452.186401 831.856506 1456.20813 844.33667 1464.251831 855.492371 C 1472.295532 866.648071 1483.354736 875.35553 1497.429688 881.61499 C 1511.504639 887.874451 1527.379883 891.004211 1545.055908 891.004211 Z M 2699.756592 445.266235 C 2668.115234 458.656494 2640.270996 477.378357 2616.2229 501.432495 L 2616.2229 152.040466 L 2452.907715 152.040466 L 2452.907715 1005.604004 L 2596.422119 1005.604004 L 2604.388672 928.329834 C 2628.667969 955.946289 2657.783447 977.625977 2691.736572 993.369568 C 2725.689697 1009.113159 2762.771729 1016.984802 2802.984375 1016.984802 C 2855.259521 1016.984802 2901.692383 1004.142944 2942.28418 978.458862 C 2982.876221 952.77478 3014.893311 917.608643 3038.33667 872.959351 C 3061.780273 828.309998 3073.501709 777.685059 3073.501709 721.082825 C 3073.501709 664.332397 3061.780273 613.670349 3038.33667 569.095154 C 3014.893311 524.519958 2982.876221 489.390808 2942.28418 463.706726 C 2901.692383 438.022705 2855.259521 425.180786 2802.984375 425.180786 C 2765.806885 425.180786 2731.397705 431.875916 2699.756592 445.266235 Z M 2835.820068 851.224609 C 2814.006348 864.158569 2789.137939 870.625366 2761.213135 870.625366 C 2734.811768 870.625366 2710.970215 864.708191 2689.687256 852.873901 C 2668.404297 841.039612 2651.333252 824.765686 2638.473389 804.05188 C 2625.613525 783.338013 2618.196777 759.665161 2616.2229 733.032715 L 2616.2229 707.879272 C 2618.196777 681.477905 2625.650635 658.034851 2638.584473 637.549194 C 2651.518311 617.063599 2668.626709 600.902344 2689.909424 589.065002 C 2711.192383 577.227661 2734.959961 571.309082 2761.213135 571.309082 C 2789.137939 571.309082 2814.006348 577.814453 2835.820068 590.825439 C 2857.633301 603.836426 2874.818604 621.590698 2887.375977 644.088745 C 2899.933594 666.586792 2906.212158 692.100098 2906.212158 720.629395 C 2906.212158 749.460938 2899.933594 775.200989 2887.375977 797.850159 C 2874.818604 820.49939 2857.633301 838.290588 2835.820068 851.224609 Z"/>
    <g id="Group-copy">
        <g id="hollow">
            <path id="leave" fill="#24c652" fill-rule="evenodd" stroke="none" d="M 470.602783 1023.780762 C 470.641205 1022.524048 470.660553 1021.262573 470.660553 1019.996521 L 470.660553 874.114441 L 764.37915 580.395691 C 811.873657 532.901367 811.873657 455.8974 764.37915 408.403076 C 716.884705 360.908386 639.880859 360.908386 592.386353 408.403076 L 470.660553 530.128906 L 470.660553 300.124634 C 470.660553 232.957275 416.210632 178.507324 349.043243 178.507324 C 281.875854 178.507324 227.425949 232.957275 227.425949 300.124634 L 227.425949 1019.996521 C 227.425949 1021.260803 227.445236 1022.520508 227.483536 1023.775452 C 101.567497 1022.925476 -0.244233 920.588623 -0.244233 794.472351 L -0.244233 228.84491 C -0.244233 102.201416 102.420639 -0.463501 229.064178 -0.463501 L 794.691589 -0.463501 C 921.335083 -0.463501 1024 102.201416 1024 228.84491 L 1024 794.472351 C 1024 921.115906 921.335083 1023.780762 794.691589 1023.780762 L 470.602783 1023.780762 Z"/>
        </g>
    </g>
</svg>
