<?xml version="1.0" encoding="UTF-8"?>
<!-- Generated by Pixelmator Pro 3.7 -->
<svg width="1024" height="1024" viewBox="0 0 1024 1024" xmlns="http://www.w3.org/2000/svg">
    <g id="Group">
        <g id="hollow">
            <path id="leave" fill="#24c652" fill-rule="evenodd" stroke="none" d="M 470.602783 1023.780762 C 470.641205 1022.524048 470.660553 1021.262573 470.660553 1019.996521 L 470.660553 873.114441 L 763.37915 580.395691 C 810.873657 532.901367 810.873657 455.8974 763.37915 408.403076 C 715.884705 360.908386 638.880859 360.908386 591.386353 408.403076 L 470.660553 529.128906 L 470.660553 300.124634 C 470.660553 232.957275 416.210632 178.507324 349.043243 178.507324 C 281.875854 178.507324 227.425949 232.957275 227.425949 300.124634 L 227.425949 1019.996521 C 227.425949 1021.260803 227.445236 1022.520508 227.483536 1023.775452 C 101.567497 1022.925476 -0.244233 920.588623 -0.244233 794.472351 L -0.244233 228.84491 C -0.244233 102.201416 102.420639 -0.463501 229.064178 -0.463501 L 794.691589 -0.463501 C 921.335083 -0.463501 1024 102.201416 1024 228.84491 L 1024 794.472351 C 1024 921.115906 921.335083 1023.780762 794.691589 1023.780762 L 470.602783 1023.780762 Z"/>
        </g>
    </g>
</svg>
